<?xml version="1.0" encoding="UTF-8" standalone="no" ?>
<!DOCTYPE svg PUBLIC "-//W3C//DTD SVG 1.1//EN" "http://www.w3.org/Graphics/SVG/1.1/DTD/svg11.dtd">
<svg xmlns="http://www.w3.org/2000/svg" xmlns:xlink="http://www.w3.org/1999/xlink" version="1.1" width="1080" height="1080" viewBox="0 0 1080 1080" xml:space="preserve">
<desc>Created with Fabric.js 5.2.4</desc>
<defs>
</defs>
<g transform="matrix(1 0 0 1 540 540)" id="98f6e92b-c4b6-472d-a6c7-eb375ff8f0bf"  >
<rect style="stroke: none; stroke-width: 1; stroke-dasharray: none; stroke-linecap: butt; stroke-dashoffset: 0; stroke-linejoin: miter; stroke-miterlimit: 4; fill: rgb(255,255,255); fill-rule: nonzero; opacity: 1; visibility: hidden;" vector-effect="non-scaling-stroke"  x="-540" y="-540" rx="0" ry="0" width="1080" height="1080" />
</g>
<g transform="matrix(1 0 0 1 540 540)" id="b4722565-6ded-43bb-a8d8-0c808cbda9ee"  >
</g>
<g transform="matrix(NaN NaN NaN NaN 0 0)"  >
<g style=""   >
</g>
</g>
<g transform="matrix(NaN NaN NaN NaN 0 0)"  >
<g style=""   >
</g>
</g>
<g transform="matrix(1 0 0 1 540 540)" id="8edd5fee-8899-4b99-8024-07209bae9fab"  >
<path style="stroke: rgb(0,0,0); stroke-width: 0; stroke-dasharray: none; stroke-linecap: butt; stroke-dashoffset: 0; stroke-linejoin: miter; stroke-miterlimit: 4; fill: rgb(245,158,11); fill-rule: nonzero; opacity: 1;" vector-effect="non-scaling-stroke"  transform=" translate(-288.17, -256.03)" d="M 316.9 18 C 311.6 7 300.4 0 288.1 0 C 275.80000000000007 0 264.70000000000005 7 259.3 18 L 195 150.3 L 51.4 171.5 C 39.4 173.3 29.4 181.7 25.7 193.2 C 22 204.7 25 217.39999999999998 33.6 225.89999999999998 L 137.8 329 L 113.2 474.7 C 111.2 486.7 116.2 498.9 126.10000000000001 506 C 136 513.1 149.10000000000002 514 159.9 508.3 L 288.20000000000005 439.8 L 416.50000000000006 508.3 C 427.30000000000007 514 440.40000000000003 513.2 450.30000000000007 506 C 460.2000000000001 498.79999999999995 465.20000000000005 486.7 463.20000000000005 474.7 L 438.5 329 L 542.7 225.9 C 551.3000000000001 217.4 554.4000000000001 204.70000000000002 550.6 193.2 C 546.8 181.69999999999996 536.9 173.29999999999998 524.9 171.5 L 381.2 150.3 L 316.9 18 z" stroke-linecap="round" />
</g>
<g transform="matrix(NaN NaN NaN NaN 0 0)"  >
<g style=""   >
</g>
</g>
</svg>