<?xml version="1.0" encoding="UTF-8" standalone="no" ?>
<!DOCTYPE svg PUBLIC "-//W3C//DTD SVG 1.1//EN" "http://www.w3.org/Graphics/SVG/1.1/DTD/svg11.dtd">
<svg xmlns="http://www.w3.org/2000/svg" xmlns:xlink="http://www.w3.org/1999/xlink" version="1.1" width="1080" height="1080" viewBox="0 0 1080 1080" xml:space="preserve">
<desc>Created with Fabric.js 5.2.4</desc>
<defs>
</defs>
<g transform="matrix(1 0 0 1 540 540)" id="f13c06e7-ced3-414f-995b-acb6581bf349"  >
<rect style="stroke: none; stroke-width: 1; stroke-dasharray: none; stroke-linecap: butt; stroke-dashoffset: 0; stroke-linejoin: miter; stroke-miterlimit: 4; fill: rgb(255,255,255); fill-rule: nonzero; opacity: 1; visibility: hidden;" vector-effect="non-scaling-stroke"  x="-540" y="-540" rx="0" ry="0" width="1080" height="1080" />
</g>
<g transform="matrix(1 0 0 1 540 540)" id="67ea311c-9756-4eb7-a692-ef509c88ceb3"  >
</g>
<g transform="matrix(1 0 0 1 540 540)" id="37a05776-afee-42b9-93c2-56ba9701f942"  >
<path style="stroke: rgb(0,0,0); stroke-opacity: 0; stroke-width: 0; stroke-dasharray: none; stroke-linecap: butt; stroke-dashoffset: 0; stroke-linejoin: miter; stroke-miterlimit: 4; fill: rgb(250,204,21); fill-rule: nonzero; opacity: 1;" vector-effect="non-scaling-stroke"  transform=" translate(-24, -24.61)" d="M 24 34.6 L 15.35 41.2 Q 14.9 41.550000000000004 14.45 41.5 Q 14 41.45 13.6 41.2 Q 13.2 40.95 13.025 40.525000000000006 Q 12.85 40.10000000000001 13 39.550000000000004 L 16.3 28.800000000000004 L 7.800000000000001 22.700000000000003 Q 7.3500000000000005 22.400000000000002 7.2250000000000005 21.925000000000004 Q 7.1000000000000005 21.450000000000003 7.250000000000001 21.050000000000004 Q 7.400000000000001 20.650000000000006 7.750000000000001 20.325000000000003 Q 8.1 20 8.65 20 L 19.2 20 L 22.55 8.8 Q 22.7 8.25 23.125 7.9750000000000005 Q 23.55 7.7 24 7.7 Q 24.45 7.7 24.875 7.9750000000000005 Q 25.3 8.25 25.45 8.8 L 28.8 20 L 39.35 20 Q 39.9 20 40.25 20.325 Q 40.6 20.65 40.75 21.05 Q 40.9 21.45 40.775 21.925 Q 40.65 22.400000000000002 40.199999999999996 22.7 L 31.699999999999996 28.799999999999997 L 35 39.55 Q 35.15 40.099999999999994 34.975 40.525 Q 34.800000000000004 40.949999999999996 34.4 41.199999999999996 Q 34 41.449999999999996 33.55 41.49999999999999 Q 33.099999999999994 41.54999999999999 32.65 41.199999999999996 Z" stroke-linecap="round" />
</g>
<g transform="matrix(NaN NaN NaN NaN 0 0)"  >
<g style=""   >
</g>
</g>
</svg>